<svg width="2448" height="958" viewBox="0 0 2448 958" fill="none" xmlns="http://www.w3.org/2000/svg">
<path d="M809.554 748L1051.41 225.4H1094.18L1336.04 748H1234.94L1073.97 366.938L910.653 748H809.554ZM930.872 632.904V558.247H1220.95V632.904H930.872ZM1534.35 748.778L1292.49 226.956H1393.59L1555.35 606.463L1718.66 226.956H1819.76L1577.12 748.778H1534.35ZM2136.27 759.665C2097.91 759.665 2062.13 752.925 2028.95 739.446C1995.77 725.447 1966.74 706.265 1941.85 681.897C1916.97 657.012 1897.53 627.978 1883.53 594.797C1869.53 561.616 1862.53 525.843 1862.53 487.478C1862.53 449.112 1869.53 413.339 1883.53 380.158C1897.53 346.977 1916.97 318.203 1941.85 293.836C1966.74 268.95 1995.77 249.768 2028.95 236.288C2062.13 222.29 2097.91 215.29 2136.27 215.29C2174.64 215.29 2210.41 222.29 2243.59 236.288C2276.77 249.768 2305.81 268.95 2330.69 293.836C2355.58 318.203 2375.02 346.977 2389.02 380.158C2403.02 413.339 2410.02 449.112 2410.02 487.478C2410.02 525.843 2403.02 561.616 2389.02 594.797C2375.02 627.978 2355.58 657.012 2330.69 681.897C2305.81 706.265 2276.77 725.447 2243.59 739.446C2210.41 752.925 2174.64 759.665 2136.27 759.665ZM2136.27 678.009C2172.05 678.009 2203.93 669.714 2231.93 653.123C2260.44 636.014 2282.74 613.202 2298.81 584.688C2314.88 556.173 2322.92 523.769 2322.92 487.478C2322.92 451.186 2314.88 418.783 2298.81 390.268C2282.74 361.235 2260.44 338.423 2231.93 321.832C2203.93 305.242 2172.05 296.947 2136.27 296.947C2100.5 296.947 2068.62 305.242 2040.62 321.832C2012.62 338.423 1990.33 361.235 1973.74 390.268C1957.67 418.783 1949.63 451.186 1949.63 487.478C1949.63 523.769 1957.67 556.173 1973.74 584.688C1990.33 613.202 2012.62 636.014 2040.62 653.123C2068.62 669.714 2100.5 678.009 2136.27 678.009Z" fill="url(#paint0_linear_501_45)"/>
<path d="M443.602 337.215L4.61649 622.638L274.938 694.265L672.336 337.215H443.602Z" fill="url(#paint1_linear_501_45)"/>
<path d="M693.13 715.811C693.13 602.308 590.369 516.495 478.685 536.733L4.61786 622.638C4.61786 688.991 58.4077 742.781 124.761 742.781H693.13V715.811Z" fill="url(#paint2_linear_501_45)"/>
<path d="M5.14041 289.468C13.2664 404.855 124.384 484.362 236.218 454.809L674.652 338.948C674.604 271.046 619.519 216.039 551.617 216.087L3.05176e-05 216.476L5.14041 289.468Z" fill="url(#paint3_linear_501_45)"/>
<defs>
<linearGradient id="paint0_linear_501_45" x1="948.43" y1="293.308" x2="2448.47" y2="745.414" gradientUnits="userSpaceOnUse">
<stop stop-color="#8D4DDF"/>
<stop offset="1" stop-color="#473CD1"/>
</linearGradient>
<linearGradient id="paint1_linear_501_45" x1="351.183" y1="370.8" x2="219.488" y2="590.292" gradientUnits="userSpaceOnUse">
<stop stop-color="#473CD1"/>
<stop offset="0.5" stop-color="#362D9E"/>
<stop offset="1" stop-color="#241F6B"/>
</linearGradient>
<linearGradient id="paint2_linear_501_45" x1="693.13" y1="682.71" x2="4.61786" y2="682.71" gradientUnits="userSpaceOnUse">
<stop stop-color="#6EC4F4"/>
<stop offset="1" stop-color="#B36DCD"/>
</linearGradient>
<linearGradient id="paint3_linear_501_45" x1="674.608" y1="277.471" x2="0.0432794" y2="277.947" gradientUnits="userSpaceOnUse">
<stop stop-color="#73D3F3"/>
<stop offset="1" stop-color="#9038DC"/>
</linearGradient>
</defs>
</svg>
